<svg width="126" height="56" viewBox="0 0 126 56" version="1.1" xmlns="http://www.w3.org/2000/svg" xmlns:xlink="http://www.w3.org/1999/xlink">
<title>evc</title>
<desc>Created using Figma</desc>
<g id="Canvas" transform="matrix(2 0 0 2 -4956 -296)">
<g id="evc">
<use xlink:href="#path0_fill" transform="translate(2476 128)" fill="#19CF85"/>
</g>
</g>
<defs>
<path id="path0_fill" d="M 2.55 34.05C 2.55 31.75 2.88333 29.75 3.55 28.05C 4.21667 26.3167 5.1 24.8833 6.2 23.75C 7.3 22.6167 8.56667 21.7667 10 21.2C 11.4333 20.6333 12.9 20.35 14.4 20.35C 17.9 20.35 20.5833 21.45 22.45 23.65C 24.3167 25.8167 25.25 29.1333 25.25 33.6C 25.25 33.8 25.25 34.0667 25.25 34.4C 25.25 34.7 25.2333 34.9833 25.2 35.25L 7.4 35.25C 7.6 37.95 8.38333 40 9.75 41.4C 11.1167 42.8 13.25 43.5 16.15 43.5C 17.7833 43.5 19.15 43.3667 20.25 43.1C 21.3833 42.8 22.2333 42.5167 22.8 42.25L 23.45 46.15C 22.8833 46.45 21.8833 46.7667 20.45 47.1C 19.05 47.4333 17.45 47.6 15.65 47.6C 13.3833 47.6 11.4167 47.2667 9.75 46.6C 8.11667 45.9 6.76667 44.95 5.7 43.75C 4.63333 42.55 3.83333 41.1333 3.3 39.5C 2.8 37.8333 2.55 36.0167 2.55 34.05ZM 20.4 31.5C 20.4333 29.4 19.9 27.6833 18.8 26.35C 17.7333 24.9833 16.25 24.3 14.35 24.3C 13.2833 24.3 12.3333 24.5167 11.5 24.95C 10.7 25.35 10.0167 25.8833 9.45 26.55C 8.88333 27.2167 8.43333 27.9833 8.1 28.85C 7.8 29.7167 7.6 30.6 7.5 31.5L 20.4 31.5ZM 47.2297 21C 45.9297 25.8667 44.3964 30.5333 42.6297 35C 40.8964 39.4667 39.213 43.4667 37.5797 47L 33.3797 47C 31.7464 43.4667 30.0464 39.4667 28.2797 35C 26.5464 30.5333 25.0297 25.8667 23.7297 21L 28.7297 21C 29.1297 22.6333 29.5964 24.3833 30.1297 26.25C 30.6964 28.0833 31.2797 29.9167 31.8797 31.75C 32.513 33.55 33.1464 35.3 33.7797 37C 34.413 38.7 35.013 40.2167 35.5797 41.55C 36.1464 40.2167 36.7464 38.7 37.3797 37C 38.013 35.3 38.6297 33.55 39.2297 31.75C 39.863 29.9167 40.4464 28.0833 40.9797 26.25C 41.5464 24.3833 42.0297 22.6333 42.4297 21L 47.2297 21ZM 57.5949 47.6C 55.4949 47.6 53.6449 47.2667 52.0449 46.6C 50.4783 45.9333 49.1449 45 48.0449 43.8C 46.9783 42.6 46.1783 41.1833 45.6449 39.55C 45.1116 37.8833 44.8449 36.05 44.8449 34.05C 44.8449 32.05 45.1283 30.2167 45.6949 28.55C 46.2949 26.8833 47.1283 25.45 48.1949 24.25C 49.2616 23.0167 50.5616 22.0667 52.0949 21.4C 53.6616 20.7 55.3949 20.35 57.2949 20.35C 58.4616 20.35 59.6283 20.45 60.7949 20.65C 61.9616 20.85 63.0783 21.1667 64.1449 21.6L 63.0949 25.55C 62.3949 25.2167 61.5783 24.95 60.6449 24.75C 59.7449 24.55 58.7783 24.45 57.7449 24.45C 55.1449 24.45 53.1449 25.2667 51.7449 26.9C 50.3783 28.5333 49.6949 30.9167 49.6949 34.05C 49.6949 35.45 49.8449 36.7333 50.1449 37.9C 50.4783 39.0667 50.9783 40.0667 51.6449 40.9C 52.3449 41.7333 53.2283 42.3833 54.2949 42.85C 55.3616 43.2833 56.6616 43.5 58.1949 43.5C 59.4283 43.5 60.5449 43.3833 61.5449 43.15C 62.5449 42.9167 63.3283 42.6667 63.8949 42.4L 64.5449 46.3C 64.2783 46.4667 63.8949 46.6333 63.3949 46.8C 62.8949 46.9333 62.3283 47.05 61.6949 47.15C 61.0616 47.2833 60.3783 47.3833 59.6449 47.45C 58.9449 47.55 58.2616 47.6 57.5949 47.6Z"/>
</defs>
</svg>
